<?xml version="1.0" encoding="UTF-8" standalone="no"?>
<!-- Created with Inkscape (http://www.inkscape.org/) -->

<svg
   xmlns:dc="http://purl.org/dc/elements/1.1/"
   xmlns:cc="http://creativecommons.org/ns#"
   xmlns:rdf="http://www.w3.org/1999/02/22-rdf-syntax-ns#"
   xmlns:svg="http://www.w3.org/2000/svg"
   xmlns="http://www.w3.org/2000/svg"
   xmlns:sodipodi="http://sodipodi.sourceforge.net/DTD/sodipodi-0.dtd"
   xmlns:inkscape="http://www.inkscape.org/namespaces/inkscape"
   width="210mm"
   height="297mm"
   viewBox="0 0 210 297"
   version="1.1"
   id="svg8"
   inkscape:version="0.92.4 (5da689c313, 2019-01-14)"
   sodipodi:docname="drawing.svg">
  <defs
     id="defs2" />
  <sodipodi:namedview
     id="base"
     pagecolor="#ffffff"
     bordercolor="#666666"
     borderopacity="1.0"
     inkscape:pageopacity="0.0"
     inkscape:pageshadow="2"
     inkscape:zoom="1"
     inkscape:cx="307.37028"
     inkscape:cy="858.44667"
     inkscape:document-units="mm"
     inkscape:current-layer="g3783"
     showgrid="false"
     inkscape:window-width="1366"
     inkscape:window-height="745"
     inkscape:window-x="-8"
     inkscape:window-y="-8"
     inkscape:window-maximized="1" />
  <metadata
     id="metadata5">
    <rdf:RDF>
      <cc:Work
         rdf:about="">
        <dc:format>image/svg+xml</dc:format>
        <dc:type
           rdf:resource="http://purl.org/dc/dcmitype/StillImage" />
        <dc:title></dc:title>
      </cc:Work>
    </rdf:RDF>
  </metadata>
  <g
     inkscape:label="Layer 1"
     inkscape:groupmode="layer"
     id="layer1">
    <g
       style="fill:#7c7c7c;stroke:#ffffff;stroke-width:2;stroke-linecap:round;stroke-linejoin:round"
       id="g3783"
       transform="matrix(0.19946439,0,0,0.32085849,3.8332789,5.4557621)">
      <path
         name=""
         id="EGY99"
         d="m 979.6,864.4 -0.2,1.5 -0.1,-0.9 -0.9,0.1 -1.3,0.1 0.1,-1.2 0.3,-0.3 0.1,-0.6 0.9,-0.4 0.3,0.3 -0.6,0.4 0.5,0.1 0.5,0.7 z m -37.5,-34.9 -0.2,0.4 -0.6,-0.9 -0.4,-0.5 -0.2,-0.5 -0.6,-0.3 -0.7,-0.7 2,-0.1 0.8,1.4 v 0.4 l 0.2,0.5 z m -11.3,-7.7 -0.1,0.4 0.2,0.5 0.1,0.4 -0.5,-0.1 -0.4,-1.2 -1.1,1 0.4,0.5 -0.5,0.5 -0.3,-1.5 1.1,-1.1 0.4,-1 0.8,-0.5 -0.3,1 0.1,0.2 z m 12.7,-4.8 0.1,0.4 h 0.5 l 1.1,0.2 0.4,0.3 h -1.8 -1 l -0.4,0.2 -0.8,-0.6 0.6,0.1 0.5,-0.2 0.6,-0.1 -0.1,-1.2 0.6,0.4 z m -42.9,-38.8 0.3,0.4 -0.1,0.8 1,1.2 0.7,0.7 -0.3,0.1 -0.9,-0.2 -0.4,-0.1 -0.4,-0.6 -0.5,-0.1 -0.7,-1 -0.4,-0.4 -0.9,-0.1 -0.2,0.4 -0.3,-0.2 -1.7,-0.4 -0.9,0.2 -1,0.7 -0.5,0.7 0.8,0.3 0.2,0.4 H 894 l -0.7,-0.4 -1.3,-0.4 v -0.4 l -0.2,-0.4 -0.4,-0.6 0.3,-0.1 0.5,0.2 1.2,-0.3 h 0.8 l 1.1,-0.3 h 0.8 l 0.7,-0.4 0.8,0.4 1.1,0.2 0.6,-0.1 1,-0.6 0.4,0.1 z m 41.6,-32.8 -1.1,0.8 -0.4,-0.8 v -0.8 l -0.1,-1.2 1.1,0.3 0.7,0.6 z"
         inkscape:connector-curvature="0" />
      <path
         name="Al Gharbiyah"
         id="EGY1530"
         d="m 537.2,53.4 -1,-0.3 -0.6,4.5 -0.8,2.5 -0.1,0.8 0.4,0.5 2,0.8 0.9,-0.3 0.7,-0.5 0.8,-0.2 0.8,-0.1 0.8,-0.4 0.4,0.1 0.3,0.2 -0.1,0.5 0.1,0.7 -0.5,2.7 -0.2,0.5 -0.9,0.5 -0.9,0.2 -0.9,0.2 -0.7,1 -0.2,1.2 0.3,0.8 0.4,0.7 0.1,1.2 -0.6,0.8 -0.8,0.7 -0.3,0.8 1.1,1 -1,0.5 -0.7,0.1 1.1,0.8 0.4,0.5 0.2,0.4 v 1 l -0.2,0.3 h -0.3 l -0.6,0.3 -1.9,0.6 -0.4,0.4 0.3,0.7 0.3,0.6 0.8,0.9 0.3,4 0.6,2.3 0.2,0.3 0.7,0.3 0.2,0.7 0.3,2.6 1,4.3 -0.2,2.6 -1.2,4.3 -0.2,2.2 -1.8,-1.1 -0.6,-1.1 -1.7,-1.6 -0.7,-0.5 -0.4,-0.7 -0.1,-0.7 -0.6,-0.5 -0.6,-0.4 -1.1,-0.6 -1,-0.4 -2.9,-0.3 -1.2,0.2 h -0.5 l -0.4,-0.8 -1.7,-2.9 -0.5,-0.3 -1.4,0.7 -1,0.1 -1.2,-0.1 -1.4,0.2 -0.4,-0.1 -0.8,-1 -0.6,-0.1 -0.7,-0.3 -1.4,-1.6 -0.8,-0.4 -1,-0.1 -0.9,0.2 -0.9,0.3 -0.9,0.4 -0.9,0.5 -4.1,0.5 -0.9,0.3 -2.1,1.3 -0.2,-1.4 -0.4,-1 -0.8,-0.4 -0.4,-0.6 0.6,-1.4 0.8,-1.2 0.4,-0.4 -0.3,-1.5 -0.9,-0.1 -1.1,0.4 -1.1,-0.4 -0.1,-1.1 0.6,-1.2 0.8,-1.2 0.5,-0.5 2.1,-0.6 1,-0.5 0.2,-0.9 -0.8,-0.6 -1.2,0.1 -2.5,0.5 1.9,-1.3 0.4,-0.6 0.2,-0.9 0.1,-1.1 -0.3,-0.9 -0.9,-0.4 -1.8,-0.4 0.3,-1 1,-1.2 0.8,-1.3 -0.4,-1.6 -2,-3 -0.1,-0.5 0.9,-0.7 0.8,-1.9 0.6,-0.1 0.8,0.4 4.8,1.7 1,-0.2 1.4,-0.5 1.2,-0.2 1.3,0.2 0.8,-0.5 -0.1,-0.3 0.4,-0.4 0.9,-0.5 0.8,-0.5 0.7,-0.2 5.9,-0.4 1.3,-0.6 0.8,-0.8 0.4,-1.9 0.4,-0.8 0.2,-0.8 0.1,-0.5 -0.1,-1.6 v -1 l 0.1,-0.9 0.6,-0.8 4.4,0.2 1.8,0.8 h 0.9 l 1.8,-1.6 0.9,-0.5 0.9,-0.1 0.9,0.1 0.8,0.3 0.5,0.3 z"
         inkscape:connector-curvature="0"
         style="fill:#00ffff" />
      <path
         name="Al Isma`iliyah"
         id="EGY1531"
         d="m 647.8,66.4 3.3,33 0.2,8.4 0.3,2 0.3,1.2 0.1,0.4 7.5,12.1 4.4,11.2 -15.6,-1.1 -2.5,0.3 -2.7,0.8 -0.6,0.3 -3.2,3.1 -0.4,0.2 -2.4,1.1 -0.4,0.1 h -1 l -4.2,-0.7 -1.5,-0.4 -1.1,-0.5 -2.4,-1.6 -7.1,-0.5 -29.4,1 -3.6,-10.1 -2.5,-9.9 -0.3,-3.4 -0.7,-2.4 -0.8,-1.1 -0.9,-0.7 -1,-1.2 -0.3,-1 v -1 l 0.4,-0.5 0.9,0.2 h 0.4 l 3.7,1.1 0.3,0.1 h 3.6 l 2.1,-0.3 1.3,-0.4 2.1,-0.4 h 2.4 l 2.2,-1.4 2.5,-2.6 5.4,-7.2 1.8,-3.7 0.8,-2.5 -1,-5 v -3.7 l 1.1,-2.3 0.5,-1.7 1.1,-2 1.2,-3.5 2.4,-3.1 0.5,-1.5 0.1,-1.2 v -1.1 l -0.8,-2.9 -1.4,-1.1 -1.2,-0.7 -1.4,-1.8 -0.1,-0.6 h 0.3 l -0.3,-0.7 7.1,-0.8 2.9,-0.7 2.1,-1 1.7,-0.5 z"
         inkscape:connector-curvature="0"
         style="fill:#803300" />
      <path
         name="Al Minufiyah"
         id="EGY1532"
         d="m 537.4,105.2 0.9,1.3 -1.1,0.4 -0.7,-0.4 -0.5,-0.6 -0.5,-0.1 -0.5,0.7 -0.1,0.9 0.1,1 0.5,0.7 v 0.6 l -2.3,2 -1.3,0.5 -0.4,0.3 0.1,1.3 -0.1,0.5 -0.6,0.5 -1.4,0.3 -0.8,0.4 -0.7,1 -0.1,0.8 v 0.9 l -0.3,1.3 -0.5,1.1 -0.2,-0.1 -0.3,-0.6 -0.6,-0.4 -0.8,-0.1 0.1,0.3 v 1.1 l 0.1,0.6 0.2,0.6 v 0.6 l -0.8,0.7 -0.8,0.4 h -0.8 l -1.8,-0.4 0.9,1.3 2.2,1.6 0.8,1.1 0.1,1 -0.3,4.2 0.6,0.6 0.2,1.5 0.1,2.7 0.3,1.1 1.5,2.2 0.9,1.6 -2.2,-1.3 -2,-1.7 -1,-0.5 -1.1,-0.9 -0.7,-0.2 -0.7,0.2 -1.1,0.9 -0.6,0.2 h -1.7 l -1.5,-0.5 -1,-1 -0.4,-1.4 v -2.1 l -0.3,-1 -0.5,-0.4 -0.1,-0.3 -1,-0.4 -1.9,-0.6 -0.6,-1.4 -0.1,-0.9 v -1.1 l -0.1,-0.8 -0.6,-0.4 -2.2,-0.6 -2.6,1.9 -1.5,-0.7 -0.5,-1.4 0.5,-1.3 3.8,-1 -0.5,-1.1 -2.4,-1.6 -0.2,-1.4 0.2,-1.3 0.4,-1.3 0.2,-0.9 -0.2,-1 -0.4,-1.1 -1.1,-2.1 0.6,-0.9 0.6,-1.1 0.4,-1.3 0.1,-1.3 -0.7,-0.3 -1.1,0.2 -0.4,-0.5 -0.3,-0.8 0.1,-0.8 0.4,-0.6 0.9,-0.4 v -0.7 l -1.7,-0.9 -1,-1.6 -0.5,-2.3 -0.2,-4.1 2.1,-1.3 0.9,-0.3 4.1,-0.5 0.9,-0.5 0.9,-0.4 0.9,-0.3 0.9,-0.2 1,0.1 0.8,0.4 1.4,1.6 0.7,0.3 0.6,0.1 0.8,1 0.4,0.1 1.4,-0.2 1.2,0.1 1,-0.1 1.4,-0.7 0.5,0.3 1.7,2.9 0.4,0.8 h 0.5 l 1.2,-0.2 2.9,0.3 1,0.4 1.1,0.6 0.6,0.4 0.6,0.5 0.1,0.7 0.4,0.7 0.7,0.5 1.7,1.6 0.6,1.1 z"
         inkscape:connector-curvature="0"
         style="fill:#ccff00" />
      <path
         name="Al Qahirah"
         id="EGY1533"
         d="m 589.4,136.8 0.1,5.4 2.1,9.2 1.8,19.4 -0.6,8.4 -52.1,2.2 -0.7,-1.2 0.6,-1.1 0.5,-2 v -3.6 l -0.6,-3.9 -1.1,-3.6 -1.1,-2.4 -2.1,-2.4 -0.9,-1.5 -0.4,-1.7 1.4,-10.1 5.6,-2.1 0.7,-0.6 0.3,-0.7 0.1,-0.8 0.3,-0.4 h 0.5 l 0.9,0.4 0.3,0.1 0.5,-0.1 1,-0.5 0.5,-0.3 1.8,-0.8 4,-0.8 12.6,-0.5 20.4,-14.1 z"
         inkscape:connector-curvature="0"
         style="fill:#2b0000" />
      <path
         name="Al Qalyubiyah"
         id="EGY1534"
         d="m 545.7,104.4 -1.8,1.7 -2.1,1.4 -0.9,1.2 -0.5,1.1 -0.1,1.6 -1,3.4 -0.2,2.6 0.6,0.7 1.4,1.1 0.8,1.7 0.6,0.9 0.8,0.8 0.8,0.9 0.8,1.3 0.6,2.3 0.7,1.5 0.7,2 0.7,0.9 0.8,0.7 17,8.6 -12.6,0.5 -4,0.8 -1.8,0.8 -0.5,0.3 -1,0.5 -0.5,0.1 -0.3,-0.1 -0.9,-0.4 h -0.5 l -0.3,0.4 -0.1,0.8 -0.3,0.7 -0.7,0.6 -5.6,2.1 -0.1,-0.9 -0.2,-0.9 -0.5,-0.7 -0.8,-0.5 -3.2,-0.3 -1,-0.6 -1.8,-1.8 -0.9,-1.6 -1.5,-2.2 -0.3,-1.1 -0.1,-2.7 -0.2,-1.5 -0.6,-0.6 0.3,-4.2 -0.1,-1 -0.8,-1.1 -2.2,-1.6 -0.9,-1.3 1.8,0.4 h 0.8 l 0.8,-0.4 0.8,-0.7 V 122 l -0.2,-0.6 -0.1,-0.6 v -1.1 l -0.1,-0.3 0.8,0.1 0.6,0.4 0.3,0.6 0.2,0.1 0.5,-1.1 0.3,-1.3 v -0.9 l 0.1,-0.8 0.7,-1 0.8,-0.4 1.4,-0.3 0.6,-0.5 0.1,-0.5 -0.1,-1.3 0.4,-0.3 1.3,-0.5 2.3,-2 v -0.6 l -0.5,-0.7 -0.1,-1 0.1,-0.9 0.5,-0.7 0.5,0.1 0.5,0.6 0.7,0.4 1.1,-0.4 -0.9,-1.3 0.2,-2.2 2.4,0.9 1,0.8 h 1.1 l 1.1,-0.3 0.7,-0.5 z"
         inkscape:connector-curvature="0"
         style="fill:#ff2a7f" />
      <path
         name="Ash Sharqiyah"
         id="EGY1535"
         d="m 610.2,56.2 0.1,0.6 1.4,1.8 1.2,0.7 1.4,1.1 0.8,2.9 v 1.1 l -0.1,1.2 -0.5,1.5 -2.4,3.1 -1.2,3.5 -1.1,2 -0.5,1.7 -1.1,2.3 v 3.7 l 1,5 -0.8,2.5 -1.8,3.7 -5.4,7.2 -2.5,2.6 -2.2,1.4 h -2.4 l -2.1,0.4 -1.3,0.4 -2.1,0.3 H 585 l -0.3,-0.1 -3.7,-1.1 h -0.4 l -0.9,-0.2 -0.4,0.5 v 1 l 0.3,1 1,1.2 0.9,0.7 0.8,1.1 0.7,2.4 0.3,3.4 2.5,9.9 -20.4,14.1 -17,-8.6 -0.8,-0.7 -0.7,-0.9 -0.7,-2 -0.7,-1.5 -0.6,-2.3 -0.8,-1.3 -0.8,-0.9 -0.8,-0.8 -0.6,-0.9 -0.8,-1.7 -1.4,-1.1 -0.6,-0.7 0.2,-2.6 1,-3.4 0.1,-1.6 0.5,-1.1 0.9,-1.2 2.1,-1.4 1.8,-1.7 1.9,-2.1 0.4,-2 -0.1,-1.8 -0.2,-0.9 -0.5,-1.7 -0.4,-2.7 -0.7,-3.3 V 88 l 0.3,-1.3 0.5,-1.1 0.7,-0.8 0.8,-0.6 1.3,-0.5 1.6,-0.4 3.9,-0.1 0.8,0.2 h 0.8 l 1.3,-0.2 0.8,-0.2 2.7,0.3 1,-0.1 1.3,-0.8 0.8,-1.1 2.5,-2.1 0.5,-0.9 0.1,-0.8 -0.3,-1.5 0.1,-1.1 0.6,-0.7 0.7,-0.3 0.9,-0.2 0.6,-0.3 1.1,-0.8 0.5,-1 0.4,-1.1 0.8,-1.6 4.3,-5.1 3,-5.7 0.4,-0.5 0.6,-0.1 1.3,0.1 0.9,-0.2 h 0.6 l 0.9,-0.4 h 0.7 l 0.7,0.2 0.7,0.1 1.1,-0.4 1.1,-0.1 3.9,-0.9 0.9,-0.1 0.4,-0.1 2.5,-2 0.7,-0.2 1.7,0.1 0.8,-0.4 2.5,-1.6 0.1,0.5 0.5,0.5 0.8,0.3 v 0.7 l -0.8,0.3 -0.6,0.3 -0.4,0.6 -0.3,0.8 0.4,0.2 0.6,0.4 0.8,-0.5 0.8,-0.1 0.6,0.2 0.6,0.4 v 0.6 h -0.6 v 0.8 l 0.8,0.7 1.1,0.5 h 1.1 l 1,-0.7 v -0.5 l -1.2,-0.1 -0.8,-0.6 -0.5,-0.9 -0.3,-1.1 1.2,0.3 1.7,0.8 z m 12.1,-3.2 -2.1,1 -2.9,0.7 -7.1,0.8 -0.3,-0.6 h 1.3 0.4 v -0.7 l -0.3,-0.1 -0.2,-0.4 1.1,-0.8 v 0.6 l 0.3,0.1 h 0.8 l -0.3,-1 0.6,-0.7 0.9,-0.1 0.9,1.6 1,0.4 h 1.3 l 1.2,-0.2 1.9,-1.1 1,-1.7 -0.3,-1.7 -1.5,-1.4 2.1,-0.1 v 0.1 z"
         inkscape:connector-curvature="0"
         style="fill:#d45500" />
      <path
         name="As Suways"
         id="EGY1536"
         d="m 663.9,134.7 1.5,8.8 1,19.3 0.7,1.9 0.7,1.3 0.7,0.9 -16.6,11.7 -0.3,-0.5 -1.9,-1.9 -1.7,-0.9 0.4,-0.9 0.9,-0.8 0.4,-0.3 v -2.7 l -1.1,-1.8 -3.3,-3.3 0.7,-0.5 0.3,-0.5 v -0.4 l -0.5,-0.5 0.5,-0.2 v -0.3 l -0.5,-0.2 -0.7,-1.1 -0.5,-0.4 -0.1,-0.4 0.1,-0.3 0.6,-0.3 0.6,-0.1 v -0.6 l -0.2,-0.7 v -0.5 l 0.2,-0.8 h -0.5 l -1.1,2.3 -0.1,1 0.3,0.7 0.4,0.5 0.4,0.7 0.1,1.3 h -0.6 l -0.2,-1.2 -0.6,-0.7 h -1 l -1,0.6 -1.3,-0.5 -1.6,1 -1.4,1.8 -0.8,1.6 -0.1,1.7 0.5,1.4 1.2,1 1.8,0.4 -1.4,1.2 -6.9,9.7 -0.4,0.7 -0.8,0.9 -2.4,4.4 -0.4,1.5 -0.1,3.9 -0.5,1.6 -1.1,1.3 v 0.7 l 0.9,0.7 0.9,1.3 0.7,1.3 0.7,2 0.9,0.9 4.1,2.8 1.1,0.8 3.7,4.5 2.6,1.5 2.3,2.4 2,2.7 0.8,1.9 0.3,2.3 0.9,3.1 1.1,2.9 1.1,1.7 v 0.6 l -0.3,1.6 2.2,9.2 -7.9,0.1 -1.5,0.2 -3.4,1.1 -2.3,1.4 -24.9,11 -1.8,0.5 -1.2,0.3 -6.6,-0.4 -11.2,1.7 -3.5,-1.6 5.2,-72.1 -0.3,-4.4 0.6,-8.4 -1.8,-19.4 -2.1,-9.2 -0.1,-5.4 29.4,-1 7.1,0.5 2.4,1.6 1.1,0.5 1.5,0.4 4.2,0.7 h 1 l 0.4,-0.1 2.4,-1.1 0.4,-0.2 3.2,-3.1 0.6,-0.3 2.7,-0.8 2.5,-0.3 z"
         inkscape:connector-curvature="0"
         style="fill:#ff8080" />
      <path
         name="Ad Daqahliyah"
         id="EGY1537"
         d="m 619.6,36.3 -0.1,1.2 -0.7,-0.3 -1.7,-0.3 -1,0.4 -0.6,-1.6 2.1,0.2 z m -14.2,-6.8 0.9,-0.6 0.8,0.4 2,2.3 0.5,0.4 1.2,0.5 3.3,2.6 0.8,0.6 -2.5,-0.6 -8.1,-5.1 h 0.8 l 0.9,0.7 -0.2,-0.7 z m -41.8,-8.1 -0.3,1.1 -0.2,0.5 -0.4,0.7 -0.6,0.6 -2.8,2.1 -1.4,1.7 -0.2,0.3 V 29 l 0.7,0.4 3.7,0.6 0.5,0.3 0.2,0.6 -0.1,0.7 v 0.6 l 0.3,0.5 0.5,0.3 0.6,-0.2 0.6,0.1 1.1,0.9 0.5,0.3 h 0.6 l 0.4,0.4 0.5,1.2 0.9,0.4 0.8,-0.4 0.5,-0.5 0.2,-0.5 v -0.4 l -0.3,-0.9 0.2,-0.7 1.6,-0.7 h 0.9 l 0.3,0.7 0.4,1.5 -0.3,0.4 v 0.7 l 0.5,0.7 -0.3,0.5 h -0.7 l -0.6,-0.6 h -0.6 l -0.3,0.6 -0.3,0.7 1.6,0.8 -0.2,1.1 -1.1,1 -1.6,0.4 -1.4,0.1 V 41 l 0.4,0.8 0.1,1.3 -1.5,2.1 -1.4,0.4 0.2,1.2 0.3,0.9 0.6,0.4 1,-0.1 4.6,-3.9 2.1,-1.1 3.7,-1 2.5,-1.7 1.2,-3 -0.4,-0.7 1.2,0.5 0.6,0.1 0.7,0.1 0.7,0.4 0.1,0.8 v 0.9 l 0.3,0.4 1,0.3 1.2,0.6 1.3,0.9 0.7,0.9 0.7,-1.6 0.4,-0.6 0.6,-0.5 -0.3,0.9 -0.1,0.6 0.1,0.5 0.3,0.7 h -1.1 v 0.6 h 1.1 l -0.5,0.4 -0.1,0.3 0.1,0.6 h 0.4 l 0.7,-0.7 0.1,0.6 0.4,0.1 v -0.7 h 0.6 l -0.4,1.4 0.4,0.9 0.7,-0.1 0.4,-1.5 1,-0.1 1.2,-1.4 1.6,-1 1.8,0.6 h -1.1 v 0.6 l 1.1,0.6 0.3,-0.4 0.5,-0.4 0.3,-0.4 1.2,0.6 v 0.6 l -0.5,0.8 -0.1,1.2 0.9,-0.4 0.1,0.6 -0.1,0.5 -0.3,0.4 -0.6,0.3 v 0.6 l 0.6,0.8 v 1 l -1.7,1.5 v 0.6 l 0.9,0.1 0.7,-0.2 0.4,-0.5 0.3,-0.7 h 0.5 l 0.2,1.3 -2.5,1.6 -0.8,0.4 -1.7,-0.1 -0.7,0.2 -2.5,2 -0.4,0.1 -0.9,0.1 -3.9,0.9 -1.1,0.1 -1.1,0.4 -0.7,-0.1 -0.7,-0.2 h -0.7 l -0.9,0.4 h -0.6 l -0.9,0.2 -1.3,-0.1 -0.6,0.1 -0.4,0.5 -3,5.7 -4.3,5.1 -0.8,1.6 -0.4,1.1 -0.5,1 -1.1,0.8 -0.6,0.3 -0.9,0.2 -0.7,0.3 -0.6,0.7 -0.1,1.1 0.3,1.5 -0.1,0.8 -0.5,0.9 -2.5,2.1 -0.8,1.1 -1.3,0.8 -1,0.1 -2.7,-0.3 -0.8,0.2 -1.3,0.2 H 556 l -0.8,-0.2 -3.9,0.1 -1.6,0.4 -1.3,0.5 -0.8,0.6 -0.7,0.8 -0.5,1.1 -0.3,1.3 v 1.9 l 0.7,3.3 0.4,2.7 0.5,1.7 0.2,0.9 0.1,1.8 -0.4,2 -1.9,2.1 -1.8,-0.5 -0.7,0.5 -1.1,0.3 H 541 l -1,-0.8 -2.4,-0.9 1.2,-4.3 0.2,-2.6 -1,-4.3 -0.3,-2.6 -0.2,-0.7 -0.7,-0.3 -0.2,-0.3 -0.6,-2.3 -0.3,-4 -0.8,-0.9 -0.3,-0.6 -0.3,-0.7 0.4,-0.4 1.9,-0.6 0.6,-0.3 h 0.3 l 0.2,-0.3 v -1 l -0.2,-0.4 -0.4,-0.5 -1.1,-0.8 0.7,-0.1 1,-0.5 -1.1,-1 0.3,-0.8 0.8,-0.7 0.6,-0.8 -0.1,-1.2 -0.4,-0.7 -0.3,-0.8 0.2,-1.2 0.7,-1 0.9,-0.2 0.9,-0.2 0.9,-0.5 0.2,-0.5 0.5,-2.7 -0.1,-0.7 0.1,-0.5 -0.3,-0.2 -0.4,-0.1 -0.8,0.4 -0.8,0.1 -0.8,0.2 -0.7,0.5 -0.9,0.3 -2,-0.8 -0.4,-0.5 0.1,-0.8 0.8,-2.5 0.6,-4.5 1,0.3 1.3,-0.8 0.7,-0.5 0.9,-0.5 h 0.7 l 0.5,-0.3 -0.2,-0.8 -1.4,-1.4 -0.5,-0.7 -0.1,-0.9 0.8,-2.2 0.3,-1.5 -0.1,-2.8 -0.3,-1.6 -0.1,-1.7 0.3,-4.2 -0.1,-3 -0.7,-5.8 -0.2,-0.9 -0.4,-0.9 -1.1,-1.3 -0.4,-0.5 -0.2,-0.8 0.1,-0.8 0.1,-0.9 0.3,-0.5 2.1,-1.7 6,-3.2 2.3,1 3.4,2.7 8.5,3.9 2.7,0.7 z"
         inkscape:connector-curvature="0"
         style="fill:#008080" />
      <path
         name="Bur Sa`id"
         id="EGY1538"
         d="m 647.6,58 v 0.1 l 0.2,8.3 -23.8,-13.9 -1.7,0.5 -0.2,-5.3 v -0.1 l 0.2,0.1 0.4,-2.9 v -1.3 l -0.4,-1.7 -1.4,-1.7 -0.2,-0.9 1,-0.7 -1.2,-0.7 -1,-0.3 0.1,-1.2 3.5,0.7 1.1,0.8 h 0.5 l 1,0.1 0.2,1.6 0.8,1.2 1.2,0.8 2.6,0.7 0.9,0.9 1.5,2 3.5,3.4 1.5,1.1 2.3,4 2.2,2 2.4,1.5 z"
         inkscape:connector-curvature="0"
         style="fill:#ff80e5" />
      <path
         name="Dumyat"
         id="EGY1539"
         d="m 606.3,28.9 -0.9,0.6 -0.6,-0.1 -1.6,-0.2 -0.4,-0.4 -0.2,-0.4 -0.4,-0.4 -2.2,-1.2 -0.9,-0.7 h -0.9 l -0.3,-1.3 -0.5,-1.1 -0.6,-1 -0.8,-0.6 h 1.1 l 1,-0.1 -4.2,-5.2 -0.8,-1.5 -1.2,-1.6 -0.9,-0.5 -0.1,0.4 -1.3,-0.7 -0.6,0.4 -0.3,0.9 -1.1,-0.6 v 1 h -0.3 l -0.9,-0.4 V 15 l -0.1,0.5 -0.4,0.7 h 1.7 l -0.5,1.1 1.3,2.2 -0.3,1.4 h 0.6 v 0.6 h -0.6 l 0.5,0.8 0.1,0.5 h -0.6 l -0.2,-1.2 -0.6,-0.8 -0.8,-0.6 -1.2,-0.1 0.3,-0.7 -0.3,-0.1 -0.6,0.7 -0.5,1.5 h 0.5 l 0.3,-0.1 0.3,-0.5 0.6,0.4 0.5,0.2 h 0.6 v 0.6 h -0.6 v 0.7 l 0.3,0.6 0.5,0.4 0.6,0.2 0.9,0.1 -0.6,0.6 -0.8,0.2 -0.8,-0.2 -0.6,-0.6 h -0.6 l 0.1,0.5 -0.7,0.2 0.7,0.6 0.5,0.7 -1.1,1.4 -0.3,1.1 0.8,0.7 H 587 V 30 l -1.1,-0.2 -0.9,-0.4 h -0.7 l -0.7,0.6 h -0.5 l -0.5,-0.6 -0.6,0.1 -0.4,0.6 -0.2,0.9 0.4,0.5 0.5,0.3 0.2,0.4 -1.1,0.4 v 0.6 l 0.5,0.9 -0.6,0.4 -0.9,0.2 -0.7,0.6 -0.2,1.4 0.6,0.8 0.8,0.2 0.9,-0.4 -1.2,3 -2.5,1.7 -3.7,1 -2.1,1.1 -4.6,3.9 -1,0.1 -0.6,-0.4 -0.3,-0.9 -0.2,-1.2 1.4,-0.4 1.5,-2.1 -0.1,-1.3 L 568,41 v -0.4 l 1.4,-0.1 1.6,-0.4 1.1,-1 0.2,-1.1 -1.6,-0.8 0.3,-0.7 0.3,-0.6 h 0.6 l 0.6,0.6 h 0.7 L 573.5,36 573,35.3 v -0.7 l 0.3,-0.4 -0.4,-1.5 -0.3,-0.7 h -0.9 l -1.6,0.7 -0.2,0.7 0.3,0.9 v 0.4 l -0.2,0.5 -0.5,0.5 -0.8,0.4 -0.9,-0.4 -0.5,-1.2 -0.4,-0.4 h -0.6 l -0.5,-0.3 -1.1,-0.9 -0.6,-0.1 -0.6,0.2 -0.5,-0.3 -0.3,-0.5 v -0.6 l 0.1,-0.7 -0.2,-0.6 -0.5,-0.3 -3.7,-0.6 -0.7,-0.4 v -0.6 l 0.2,-0.3 1.4,-1.7 2.8,-2.1 0.6,-0.6 0.4,-0.7 0.2,-0.5 0.3,-1.1 2.1,-0.1 12.3,-3.5 7.3,-4.2 3,-1 3.2,0.1 2.6,1.3 1.1,2.6 0.5,1.1 2.5,3.5 1.1,2.8 1.3,1.6 2.6,2.4 0.9,0.4 2,0.4 z"
         inkscape:connector-curvature="0"
         style="fill:#ff9955" />
      <g
         id="g3786">
        <path
           style="fill:#ff0000"
           inkscape:connector-curvature="0"
           d="M 402.3,62.9 V 63 l 2.2,63.9 3.8,8 53.7,33.5 -63.6,39.1 -53.1,53.7 -16.5,12.5 -64.8,17 -6.1,2.5 -3.8,4.2 -2.3,3.5 -35.3,75.6 -190,0.1 H 24.9 V 235.7 l -0.5,-5.3 -1.5,-5.1 -6.7,-16.5 -0.9,-3.2 -0.1,-3.7 0.7,-6.8 v -2.3 L 14.7,189 10.5,181.9 10,178 l 1.3,-5 0.1,-1.8 -0.3,-2.1 L 4,151.4 1.7,147.2 1,145.1 v -3.6 l 1.3,-3.3 3.4,-6.2 1.4,-3.2 0.8,-1.4 2.2,-2.8 2.5,-2.5 4.7,-7.3 1.6,-3.2 0.8,-3.3 0.3,-1.8 2.4,-6.6 0.9,-5.2 1,-3.8 1.2,-3.3 0.6,-3.3 L 24.9,80.5 21.4,72.8 20.3,68 17.4,62.1 16.9,60.1 15,49.9 14.9,42.1 14.1,34 v -3.5 l 1,-3 13.3,-10.9 3,-8.2 2.3,-3.3 5.1,-4.1 -0.1,0.7 1,6.3 0.9,3.1 1.5,1.9 1.7,0.5 4.2,0.3 3.2,1.6 h 1.7 l 3.7,-0.6 0.8,0.3 0.9,0.4 1,0.2 1.5,-0.8 2,-0.6 2.4,-0.2 13.3,-3.9 15.3,-5.2 3.7,-0.6 8,0.4 32.3,9.1 23.6,3.2 1.3,0.7 1.3,0.5 4.1,-0.3 1.7,0.2 5.8,2.8 3.4,1.1 h 3.7 l 3,-1.1 1.4,-0.2 1.4,1 1.1,1.1 0.9,0.3 0.7,0.1 0.9,0.2 2.3,1.3 5.1,1.7 5.6,0.6 2,0.6 1.3,1 0.5,-0.4 0.8,-0.5 0.3,-0.4 1,0.1 5.1,-0.1 0.6,0.2 0.6,0.4 0.6,0.6 -0.2,0.7 0.2,0.7 0.6,1.2 0.4,0.6 0.4,0.2 0.2,0.3 0.2,1.4 0.2,0.6 0.6,1 0.8,2.9 0.8,1.3 2,1.7 2.3,1.3 2.6,0.9 5.1,0.8 2,0.8 1.9,0.4 1.8,-1 4.1,2.2 4.8,-0.8 9.5,-4.7 1.4,-0.2 0.9,0.6 0.4,1.4 0.1,1.9 0.3,0.8 1.4,3.4 0.3,3.1 0.3,0.8 2.4,1.5 3.9,0.6 14.7,-0.1 1,0.3 0.7,0.5 0.6,0.7 0.7,0.4 1,0.3 2.5,-0.3 1.8,0.2 3.5,0.9 1.6,0.2 1.6,-0.4 3.6,-1.7 1.9,-0.4 1.5,0.3 1.5,0.7 1.3,0.9 1,1 0.7,0.4 h 2.9 l 1.1,0.2 0.9,0.3 1.3,0.8 14.5,5.2 3,1.6 1.5,0.7 2,0.3 0.5,0.5 0.6,2.6 0.3,0.8 0.6,0.5 1.5,0.4 14.2,7.5 13.2,-0.6 2.4,-0.4 11.2,-5.4 12,-5.9 4.4,-3.3 z"
           id="EGY1540"
           name="Matruh" />
      </g>
      <path
         name="Al Buhayrah"
         id="EGY1541"
         d="m 467.7,21.4 1.4,0.3 0.7,1.1 0.2,1.9 -0.1,2.4 0.4,0.3 0.7,0.2 0.8,0.4 0.3,1 0.1,0.9 0.4,0.7 0.5,0.5 0.8,0.3 V 31 l 0.3,-0.6 0.4,-0.4 0.7,0.3 0.3,0.4 1,0.7 0.5,0.5 0.4,0.6 0.2,0.8 0.1,0.9 -0.2,2 -0.4,1.8 -0.7,1.5 -1,1 v 0.6 l 0.4,0.2 0.2,0.5 h 0.5 v -0.7 h 0.6 l 0.4,0.8 0.5,2.6 v 0.6 h 1.4 l 0.4,-0.1 0.6,-0.5 0.6,-0.1 0.6,0.4 0.9,1.3 0.5,0.2 0.9,0.3 0.7,0.7 3.7,5.6 3.9,2.2 0.6,0.8 0.2,0.4 1.1,1.6 0.4,0.9 v 1 l -0.2,1.4 0.2,0.8 0.7,0.6 1.4,1.4 0.8,1.4 -0.9,0.7 0.1,0.5 2,3 0.4,1.6 -0.8,1.3 -1,1.2 -0.3,1 1.8,0.4 0.9,0.4 0.3,0.9 -0.1,1.1 -0.2,0.9 -0.4,0.6 -1.9,1.3 2.5,-0.5 1.2,-0.1 0.8,0.6 -0.2,0.9 -1,0.5 -2.1,0.6 -0.5,0.5 -0.8,1.2 -0.6,1.2 0.1,1.1 1.1,0.4 1.1,-0.4 0.9,0.1 0.3,1.5 -0.4,0.4 -0.8,1.2 -0.6,1.4 0.4,0.6 0.8,0.4 0.4,1 0.2,1.4 0.2,4.1 0.5,2.3 1,1.6 1.7,0.9 v 0.7 l -0.9,0.4 -0.4,0.6 -0.1,0.8 0.3,0.8 0.4,0.5 1.1,-0.2 0.7,0.3 -0.1,1.3 -0.4,1.3 -0.6,1.1 -0.6,0.9 1.1,2.1 0.4,1.1 0.2,1 -0.2,0.9 -0.4,1.3 -0.2,1.3 0.2,1.4 2.4,1.6 0.5,1.1 -3.8,1 -0.5,1.3 0.5,1.4 -37.9,34.3 -3.3,6.9 -53.7,-33.5 -3.8,-8 4.8,-11.9 3.7,-3.8 13.3,-6.4 3,-2 2.6,-2.9 2.1,-3.1 2.2,-4.2 -1.2,-3.6 -1.1,-2.3 -3.8,-4.6 -5.2,-8.6 -0.6,-1.7 -0.3,-2.2 1.2,-2.3 1.5,-1.7 1,-1.7 0.1,-0.5 -0.8,-2.6 -1.6,-0.9 -0.5,-1 -0.4,-0.5 -0.1,-0.6 -0.1,-0.8 0.1,-0.7 0.5,-0.5 4.7,-2.1 5.5,-3.3 1,-0.7 2.2,-3.2 4.7,-9.3 0.2,-0.5 3,0.9 3,0.3 -0.6,0.4 -1,1.1 -0.6,0.4 v 0.6 l 0.6,0.1 -1,0.7 0.3,0.7 0.9,0.7 0.8,0.5 3.4,-2 -0.4,1.1 0.5,0.6 0.7,0.1 0.3,-0.1 0.4,-0.6 2.4,-2.4 0.3,0.5 0.3,0.2 0.5,-1.2 0.1,-0.8 h 0.5 v 1 l 0.1,0.8 0.4,0.5 0.6,0.3 0.4,-0.6 0.8,-2.6 -1.3,-0.6 -1.1,0.2 -1.2,0.7 -1.5,0.3 v -0.6 h 1.1 v -0.6 l -1.3,0.4 -4.8,0.2 v -0.6 l 3,-0.8 2.9,-1.6 5,-4.6 1.8,-2.9 1.1,-3.8 0.3,-4.1 -0.7,-3.3 h 0.6 l 0.4,1.9 0.7,1.7 1.2,1.3 z"
         inkscape:connector-curvature="0"
         style="fill:#008000" />
      <path
         name="Al Fayyum"
         id="EGY1542"
         d="m 525.2,215.2 -3.3,3.3 -3.2,6.3 -3.3,3.7 -1.5,2.9 -2.6,3.9 -5.5,6.1 -6.9,3.6 -34,9.6 -3.9,0.3 -5.5,-3.9 -35.5,-6.6 38.1,-37.1 6,-4.9 14.9,-8.8 17.1,-7.9 17.1,-2.1 3.9,2.9 2.2,2.4 z"
         inkscape:connector-curvature="0"
         style="fill:#800080" />
      <path
         name="Al Iskandariyah"
         id="EGY1543"
         d="m 443.2,36.7 -0.2,0.5 -4.7,9.3 -2.2,3.2 -1,0.7 -5.5,3.3 -4.7,2.1 -0.5,0.5 -0.1,0.7 0.1,0.8 0.1,0.6 0.4,0.5 0.5,1 1.6,0.9 0.8,2.6 -0.1,0.5 -1,1.7 -1.5,1.7 -1.2,2.3 0.3,2.2 0.6,1.7 5.2,8.6 3.8,4.6 1.1,2.3 1.2,3.6 -2.2,4.2 -2.1,3.1 -2.6,2.9 -3,2 -13.3,6.4 -3.7,3.8 -4.8,11.9 -2.2,-63.9 v -0.1 l 0.4,-0.2 0.6,-0.9 0.7,-0.7 12,-8.9 1.3,-2.5 2.2,0.6 2.4,-1.2 3.8,-3.4 -0.7,-1 h -0.3 l -0.7,0.4 0.4,-1 0.7,-0.6 0.6,-0.1 0.5,1 h 0.6 l 0.9,-1 3.8,-3.4 1.2,-0.8 1,-0.5 1.7,-2.3 0.6,-0.5 1.2,-0.2 0.6,-0.6 0.6,-0.6 0.7,-0.6 -0.6,-0.2 0.1,-0.5 2.2,-1.2 -0.2,2.7 2.3,1.9 z"
         inkscape:connector-curvature="0"
         style="fill:#ffff00" />
      <path
         name="Al Jizah"
         id="EGY1544"
         d="m 528.7,142.2 1.8,1.8 1,0.6 3.2,0.3 0.8,0.5 0.5,0.7 0.2,0.9 0.1,0.9 -1.4,10.1 0.4,1.7 0.9,1.5 2.1,2.4 1.1,2.4 1.1,3.6 0.6,3.9 v 3.6 l -0.5,2 -0.6,1.1 0.7,1.2 52.1,-2.2 0.3,4.4 -5.2,72.1 -30.1,-9.1 -1.5,-0.8 -2.5,-1.5 -1.6,-1.2 -3.2,-3.4 -1,-1.3 -0.3,-0.6 -1.2,-2.7 -0.5,-0.8 -0.6,-0.7 -1.7,-1.5 -6,-7.4 0.2,-1 0.1,-0.8 v -1 l -0.2,-1 -0.4,-0.9 -0.8,-1.4 -0.6,-0.7 -0.6,-0.6 -0.8,-0.5 -1.2,-0.6 -2.4,-0.8 -2.1,-0.3 -3.7,0.1 -5.9,-26.3 -2.2,-2.4 -3.9,-2.9 -17.1,2.1 -17.1,7.9 -14.9,8.8 -6,4.9 -38.1,37.1 -3.3,23.6 -2.1,7.2 -13.2,34.9 -10.4,13.8 -12.4,9.2 -37.8,20 -5.8,4.4 -4.1,6.2 -5.8,12.8 H 216.5 l 35.3,-75.6 2.3,-3.5 3.8,-4.2 6.1,-2.5 64.8,-17 16.5,-12.5 53.1,-53.7 63.6,-39.1 3.3,-6.9 37.9,-34.3 1.5,0.7 2.6,-1.9 2.2,0.6 0.6,0.4 0.1,0.8 v 1.1 l 0.1,0.9 0.6,1.4 1.9,0.6 1,0.4 0.1,0.3 0.5,0.4 0.3,1 v 2.1 l 0.4,1.4 1,1 1.5,0.5 h 1.7 l 0.6,-0.2 1.1,-0.9 0.7,-0.2 0.7,0.2 1.1,0.9 1,0.5 2,1.7 z"
         inkscape:connector-curvature="0"
         style="fill:#808000" />
      <path
         name="Al Minya"
         id="EGY1545"
         d="m 512.3,279.3 -2.6,22.7 -0.4,1.9 -0.5,1.1 -4,6.8 -2.3,6.2 -0.5,2.1 -0.2,1.7 0.1,1 0.8,4.2 0.4,4 0.1,1 0.4,1.1 4.4,8.7 1.3,3.7 0.4,2.5 0.7,8.8 0.5,2.1 1.9,4.9 0.4,1.8 0.3,2.8 0.1,2.2 -0.1,1.5 -1.4,8.8 -8.8,1 -0.8,-0.1 -4.8,-1.9 -1.3,0.1 -2.6,0.5 -1.6,0.1 -2.2,-1 0.4,-1.1 0.9,-2 H 325.1 l 5.8,-12.8 4.1,-6.2 5.8,-4.4 37.8,-20 12.4,-9.2 10.4,-13.8 13.2,-34.9 83.4,-2 1.4,1.5 z"
         inkscape:connector-curvature="0"
         style="fill:#0000ff" />
      <path
         name="Bani Suwayf"
         id="EGY1546"
         d="m 537.7,224.7 -0.3,4 0.3,3.7 -0.1,1.3 -0.6,1.8 -1,1.9 -1.4,3.9 -1,2 -1.2,1.8 -3.6,3.9 -2.3,3.1 -4.7,7.6 -5.5,7.4 -1.8,3.2 -1.5,4.3 -0.6,2.8 -0.1,1.9 -12.9,-4.6 -1.4,-1.5 -83.4,2 2.1,-7.2 3.3,-23.6 35.5,6.6 5.5,3.9 3.9,-0.3 34,-9.6 6.9,-3.6 5.5,-6.1 2.6,-3.9 1.5,-2.9 3.3,-3.7 3.2,-6.3 3.3,-3.3 3.7,-0.1 2.1,0.3 2.4,0.8 1.2,0.6 0.8,0.5 0.6,0.6 0.6,0.7 0.8,1.4 0.4,0.9 0.2,1 v 1 l -0.1,0.8 z"
         inkscape:connector-curvature="0"
         style="fill:#241c1f" />
      <path
         name="Kafr ash Shaykh"
         id="EGY1547"
         d="m 545.5,13.2 -6,3.2 -2.1,1.7 -0.3,0.5 -0.1,0.9 -0.1,0.8 0.2,0.8 0.4,0.5 1.1,1.3 0.4,0.9 0.2,0.9 0.7,5.8 0.1,3 -0.3,4.2 0.1,1.7 0.3,1.6 0.1,2.8 -0.3,1.5 -0.8,2.2 0.1,0.9 0.5,0.7 1.4,1.4 0.2,0.8 -0.5,0.3 h -0.7 l -0.9,0.5 -0.7,0.5 -1.3,0.8 -1.7,-1.6 -0.5,-0.3 -0.8,-0.3 -0.9,-0.1 -0.9,0.1 -0.9,0.5 -1.8,1.6 h -0.9 l -1.8,-0.8 -4.4,-0.2 -0.6,0.8 -0.1,0.9 v 1 l 0.1,1.6 -0.1,0.5 -0.2,0.8 -0.4,0.8 -0.4,1.9 -0.8,0.8 -1.3,0.6 -5.9,0.4 -0.7,0.2 -0.8,0.5 -0.9,0.5 -0.4,0.4 0.1,0.3 -0.8,0.5 -1.3,-0.2 -1.2,0.2 -1.4,0.5 -1,0.2 -4.8,-1.7 -0.8,-0.4 -0.6,0.1 -0.8,1.9 -0.8,-1.4 -1.4,-1.4 -0.7,-0.6 -0.2,-0.8 0.2,-1.4 v -1 l -0.4,-0.9 -1.1,-1.6 -0.2,-0.4 -0.6,-0.8 -3.9,-2.2 -3.7,-5.6 -0.7,-0.7 -0.9,-0.3 -0.5,-0.2 -0.9,-1.3 -0.6,-0.4 -0.6,0.1 -0.6,0.5 -0.4,0.1 h -1.4 v -0.6 l -0.5,-2.6 -0.4,-0.8 h -0.6 v 0.7 h -0.5 l -0.2,-0.5 -0.4,-0.2 v -0.6 l 1,-1 0.7,-1.5 0.4,-1.8 0.2,-2 -0.1,-0.9 -0.2,-0.8 -0.4,-0.6 -0.5,-0.5 -1,-0.7 -0.3,-0.4 -0.7,-0.3 -0.4,0.4 -0.3,0.6 v 0.4 l -0.8,-0.3 -0.5,-0.5 -0.4,-0.7 -0.1,-0.9 -0.3,-1 -0.8,-0.4 -0.7,-0.2 -0.4,-0.3 0.1,-2.4 -0.2,-1.9 -0.7,-1.1 -1.4,-0.3 -2.3,-1.7 -1.2,-2.8 0.5,-1.7 3,1.7 2.2,1.7 2.5,1 3,0.3 3.5,-0.4 11.5,-3.1 24.3,-8.7 v 0.7 l -1.2,0.1 -7.6,2.9 -6.3,3.6 -4.3,2.1 -3.5,2.4 -0.5,0.2 -1.1,0.2 -0.6,0.2 -3.1,2.2 -1.5,0.5 -3.2,0.3 -0.7,0.4 h -0.4 l -1.2,1.9 v 0.7 l 1.7,0.4 0.5,0.1 0.6,-0.5 h 0.5 l 1.3,0.7 2.2,-0.1 2.3,-0.7 1,-0.9 0.7,-1.6 1.6,0.5 1.7,1.4 1,1.3 h 0.5 l 0.6,-1.6 1.2,-1.7 1.5,-1.3 1.3,-0.6 0.7,-0.3 0.9,0.4 1.1,0.7 1.2,0.5 0.7,-0.1 1.1,-0.3 1.1,-0.1 1,0.5 -0.6,0.2 0.1,0.5 1.1,0.3 1.4,-0.5 1.3,-0.9 1.1,-0.9 -0.5,-0.2 v -0.4 l 0.3,-0.3 0.2,-0.5 2.8,1.3 0.6,0.7 0.7,-0.6 0.6,-0.8 0.9,-1.9 -0.5,-0.8 0.3,-0.7 1.3,-1.1 0.3,-0.6 -0.1,-0.9 0.4,-0.5 0.5,-0.1 3,0.3 0.8,0.3 1.3,0.9 0.2,0.3 v 0.5 l 0.2,0.3 0.7,0.2 0.7,-0.2 0.5,-0.5 0.3,-0.6 -1.5,-0.8 0.6,-0.3 0.5,-0.2 0.5,0.1 -1.6,-2.2 -3.3,-2.5 -3.8,-1.6 -3.7,-0.2 0.7,-0.4 2.1,-0.8 6.9,-1 2.6,0.3 7.5,2.4 z"
         inkscape:connector-curvature="0"
         style="fill:#00ff00" />
      <path
         name="Aswan"
         id="EGY1548"
         d="m 557.3,887.9 h -4.9 l 4.6,-13.5 0.1,-2.2 -0.8,-1.9 -1.8,-1.8 -1.5,-0.8 -1.5,-0.2 -1.6,0.3 -1.5,0.8 -2.2,2.3 -3.6,7.6 -0.8,-1.3 -0.8,-0.9 -3.6,-2.6 -0.8,-0.8 -0.8,-0.9 -0.4,-0.9 -0.2,-1 0.3,-1.2 0.6,-1.3 1.3,-1.9 1,-1.1 1.1,-0.9 2.1,-1 2,-0.6 2,-0.3 4.2,-0.2 1.9,-0.3 2.1,-0.7 1.9,-0.9 1.4,-0.8 2.8,-2.3 5.8,-7.3 0.7,-1.4 0.5,-1.4 0.6,-2.8 0.1,-0.6 -0.6,-4.8 -1.3,-5.2 -0.3,-2 v -0.9 l 0.3,-1.3 0.6,-1.4 1.5,-2.3 1.1,-1.3 1.2,-1 1.1,-0.5 1.1,-0.4 1,-0.2 1,-0.1 h 1.9 l 7,1.9 0.9,0.1 0.9,-0.1 26,-12.4 2.3,-0.7 1.1,-0.2 1,0.1 1,0.4 1.8,1.2 3.7,3.1 1,0.4 1,0.3 h 1.2 l 2.2,-0.5 h 1 l 0.9,0.2 0.9,0.6 0.7,0.7 1,1.7 0.7,0.8 0.8,0.2 0.9,-0.3 0.8,-0.9 1.6,-3.4 0.6,-0.9 0.7,-0.9 0.9,-1.7 0.7,-2.4 1,-5 0.8,-2.5 0.9,-1.6 0.7,-1 0.3,-0.5 0.8,-1.7 2.4,-8 4,-8.9 2.1,-2.8 7.1,-7.8 0.8,-1.2 0.5,-1.2 0.3,-1.6 -0.1,-1.5 -0.6,-1.6 -0.8,-0.4 -1,-0.2 -11,1.7 -8.2,-0.3 -3.3,-0.7 -0.9,-0.3 -0.9,-0.5 -0.7,-1 -0.3,-1.4 0.5,-2.2 0.3,-1.2 0.7,-1.6 0.7,-2.3 1.1,-6.8 1,-3.9 0.5,-0.9 2,-2.9 1.5,-1.8 1.8,-1.8 1,-0.6 0.9,-0.5 1,-0.4 2,-0.5 10.1,-1.4 1,-0.4 0.9,-0.6 0.5,-1 0.1,-1.1 -0.7,-1.7 -0.8,-0.9 -0.9,-0.7 -1.9,-0.9 -3.7,-2.1 -0.9,-0.8 -0.7,-0.9 -0.5,-1.2 -0.1,-1.5 0.2,-2.6 0.6,-2.8 0.5,-1.1 0.7,-0.9 0.7,-0.6 0.9,-0.4 1,-0.4 1.9,-0.3 5.2,0.2 2,-0.3 1,-0.3 1,-0.5 0.9,-0.6 0.9,-0.8 0.7,-1 0.3,-0.6 0.7,-0.8 0.2,-0.9 0.8,-3.2 v -1.7 l -1.1,-3.7 -0.1,-1.1 0.1,-2.9 0.2,-1 V 686 l 0.6,-4.5 v -1.1 l -0.7,-6.2 0.2,-5 0.3,-1.9 v -1.2 l -0.2,-0.2 0.5,-3.6 3,-7.3 0.8,-3.4 -0.3,-1.3 v -0.5 l -0.6,-3.3 -1.6,-4.8 -3.5,-7.3 -0.6,-1.6 -0.3,-1.2 -0.9,-9.3 -1.2,-3.4 -0.9,-1.9 -1.4,-2.1 -1.8,-2 -2.8,-2.3 -6.7,-3.8 1.4,-1.2 0.7,-0.4 0.8,-0.6 0.4,-0.8 0.3,-1.3 v -4.8 l 0.6,-2.1 16.6,12.7 3,4 2.8,4.8 1.1,2.7 0.6,2.6 0.8,5.3 0.2,12.1 0.5,3.2 0.5,1.3 8.8,18.5 0.1,0.7 -0.1,1.7 -0.6,2.3 -0.3,0.8 -1,1.9 -1.3,2 -6.7,8.8 -0.7,1.6 -1.7,7.1 -0.8,6.1 2.3,15.3 0.8,2.1 1.9,3.6 2.2,6.1 0.7,1.6 1.3,1.7 1.6,1.4 1.7,1.2 0.9,0.7 0.9,1.1 1,1.9 0.3,1.3 0.1,1.2 -0.1,1.4 v 1.7 l 0.5,4.7 -0.1,1.5 -0.4,0.9 -1.7,2.7 -0.2,1.5 0.1,2.3 1.8,8.3 0.5,1.4 2.3,3.6 0.9,2 0.3,1.4 0.1,1.3 -0.1,0.9 -0.7,2.3 -2.9,7.5 -0.4,0.9 -0.6,0.8 -2.5,2 -0.8,0.9 -0.5,1.1 -1.2,3 -0.4,0.9 -0.6,0.9 -1.6,1.8 -0.5,1.2 0.2,1.1 0.5,1 0.9,0.7 5.6,3.5 4.8,1.8 1,0.5 0.8,0.7 0.7,0.9 1.1,2 0.7,0.8 1.6,1.5 0.7,0.9 0.5,0.9 3.4,11.6 0.2,2.3 -0.3,1 -0.7,0.4 h -0.8 l -0.9,-0.3 -0.9,-0.4 -5.3,-4 -6.5,-6.8 -2,-1.2 -1.9,-0.6 -2,-0.2 -6.7,1.1 h -0.8 l -0.9,-0.1 -0.9,-0.3 -0.9,-0.4 -1.9,-1.5 -3.6,-3.8 -0.9,-0.9 -1,-0.6 -0.8,-0.2 -0.8,0.1 -0.7,0.6 -0.4,0.9 -0.9,2.7 -0.5,0.8 -1.6,1.6 -0.7,1.2 v 1.2 l 0.5,3.8 -0.1,2.6 -0.3,1.6 -0.5,1.2 -1.1,1.8 -2.1,2.8 -10.6,9.6 -2.6,2.9 -3,2.7 -1.4,0.9 -1.6,0.9 -3.7,1.2 -3.9,0.6 -4.6,-0.1 -1.1,-0.2 -2,-0.6 -2.1,-1 -0.8,-0.6 -0.8,-0.6 -3.4,-3.9 -3.7,-3 -0.9,-0.6 -0.9,-0.4 -0.9,-0.1 -0.9,0.3 -0.8,0.6 -0.6,0.9 -0.9,1.9 -5.3,15 -1.4,2.3 -1.4,1.8 -1.1,1.3 -3.3,2.4 -0.9,0.5 -1,0.4 -1,0.2 h -2.8 l -1,0.2 -1.1,0.4 -1,0.9 -0.6,0.9 -1.1,1.9 -1.4,1.8 -1,0.8 -16.9,8 -1.8,1 -1.8,1.5 -1.9,2.2 -2.3,4.4 z"
         inkscape:connector-curvature="0" />
      <path
         name="Asyut"
         id="EGY1549"
         d="m 512.1,380.9 -0.3,8.1 0.1,2.7 0.3,1.3 0.7,2.6 0.6,1.2 0.5,1 0.8,1 0.8,0.7 7.1,4.2 8.3,3.5 5.2,1.6 1.2,0.6 1.2,0.9 1.8,1.6 1,1.3 0.8,1.4 1.3,3.7 0.6,1.4 0.6,0.8 0.6,0.5 1.9,1.2 3.3,2.8 5.2,5.3 1.1,1.4 1.9,3.2 8.7,18.4 -3.2,0.4 -1,-0.3 -1.2,-0.5 -0.9,-0.8 -0.8,-1 -0.7,-1.1 -1.3,-2.9 -0.6,-1 -0.6,-0.8 -1.4,-1.4 -1.1,-0.4 h -0.9 l -0.5,0.3 -0.6,0.6 -0.8,1.1 -0.6,1 -0.5,0.7 -0.8,0.8 -0.9,0.7 -7.6,4.2 -10.3,-20.8 -1,-1.5 -3.8,-4.2 -1.6,-1.2 -1.3,-1 -7.5,-3.1 -4,-2.3 -10.9,-10.3 -1.2,-1.6 -1.4,-2 -7.6,-16.3 -0.9,-2.9 -0.2,-2.5 0.3,-3.6 2.2,1 1.6,-0.1 2.6,-0.5 1.3,-0.1 4.8,1.9 0.8,0.1 z"
         inkscape:connector-curvature="0" />
      <path
         name="Al Wadi at Jadid"
         id="EGY1550"
         d="m 490,379.6 -0.3,3.6 0.2,2.5 0.9,2.9 7.6,16.3 1.4,2 1.2,1.6 10.9,10.3 4,2.3 7.5,3.1 1.3,1 1.6,1.2 3.8,4.2 1,1.5 10.3,20.8 11.3,14.1 7.8,6.6 34.2,43 12.9,12.3 0.9,0.6 1.4,0.8 2,1 1.2,0.4 1.5,0.3 2.3,0.1 4,-0.7 7.2,-2.1 18.8,-8.8 2.3,-0.6 3.7,-0.5 1.4,0.1 1.2,0.2 0.9,0.4 0.8,0.6 0.8,0.8 0.7,0.9 0.6,0.9 0.3,1 0.3,1.8 v 1.9 l -0.2,1.2 -0.3,1 -0.8,1.8 -3.4,5.9 -0.5,1.1 -0.3,1 -0.6,4.3 -0.5,2 -0.4,1 -0.5,0.9 -0.6,0.9 -1.6,1.8 -11.2,8.9 -2.4,2.5 -1.2,1.8 -0.4,0.9 -0.2,0.9 -0.1,1.9 0.1,1.4 2.8,11 2.2,13 1.2,3.2 0.8,1.4 0.8,1.2 1.7,1.8 7.7,6 6.7,3.8 2.8,2.3 1.8,2 1.4,2.1 0.9,1.9 1.2,3.4 0.9,9.3 0.3,1.2 0.6,1.6 3.5,7.3 1.6,4.8 0.6,3.3 v 0.5 l 0.3,1.3 -0.8,3.4 -3,7.3 -0.5,3.6 0.2,0.2 v 1.2 l -0.3,1.9 -0.2,5 0.7,6.2 v 1.1 l -0.6,4.5 v 2.1 l -0.2,1 -0.1,2.9 0.1,1.1 1.1,3.7 v 1.7 l -0.8,3.2 -0.2,0.9 -0.7,0.8 -0.3,0.6 -0.7,1 -0.9,0.8 -0.9,0.6 -1,0.5 -1,0.3 -2,0.3 -5.2,-0.2 -1.9,0.3 -1,0.4 -0.9,0.4 -0.7,0.6 -0.7,0.9 -0.5,1.1 -0.6,2.8 -0.2,2.6 0.1,1.5 0.5,1.2 0.7,0.9 0.9,0.8 3.7,2.1 1.9,0.9 0.9,0.7 0.8,0.9 0.7,1.7 -0.1,1.1 -0.5,1 -0.9,0.6 -1,0.4 -10.1,1.4 -2,0.5 -1,0.4 -0.9,0.5 -1,0.6 -1.8,1.8 -1.5,1.8 -2,2.9 -0.5,0.9 -1,3.9 -1.1,6.8 -0.7,2.3 -0.7,1.6 -0.3,1.2 -0.5,2.2 0.3,1.4 0.7,1 0.9,0.5 0.9,0.3 3.3,0.7 8.2,0.3 11,-1.7 1,0.2 0.8,0.4 0.6,1.6 0.1,1.5 -0.3,1.6 -0.5,1.2 -0.8,1.2 -7.1,7.8 -2.1,2.8 -4,8.9 -2.4,8 -0.8,1.7 -0.3,0.5 -0.7,1 -0.9,1.6 -0.8,2.5 -1,5 -0.7,2.4 -0.9,1.7 -0.7,0.9 -0.6,0.9 -1.6,3.4 -0.8,0.9 -0.9,0.3 -0.8,-0.2 -0.7,-0.8 -1,-1.7 -0.7,-0.7 -0.9,-0.6 -0.9,-0.2 h -1 l -2.2,0.5 h -1.2 l -1,-0.3 -1,-0.4 -3.7,-3.1 -1.8,-1.2 -1,-0.4 -1,-0.1 -1.1,0.2 -2.3,0.7 -26,12.4 -0.9,0.1 -0.9,-0.1 -7,-1.9 h -1.9 l -1,0.1 -1,0.2 -1.1,0.4 -1.1,0.5 -1.2,1 -1.1,1.3 -1.5,2.3 -0.6,1.4 -0.3,1.3 v 0.9 l 0.3,2 1.3,5.2 0.6,4.8 -0.1,0.6 -0.6,2.8 -0.5,1.4 -0.7,1.4 -5.8,7.3 -2.8,2.3 -1.4,0.8 -1.9,0.9 -2.1,0.7 -1.9,0.3 -4.2,0.2 -2,0.3 -2,0.6 -2.1,1 -1.1,0.9 -1,1.1 -1.3,1.9 -0.6,1.3 -0.3,1.2 0.2,1 0.4,0.9 0.8,0.9 0.8,0.8 3.6,2.6 0.8,0.9 0.8,1.3 -4.4,8.8 -1,0.7 h -11.1 -15.9 -39.8 -8 -31.8 -15.9 -23.9 -7.9 -31.8 -15.9 -39.8 -8 -15.9 l -15.9,-0.1 h -39.8 -7.9 -31.8 -15.9 -23.9 -7.9 -16 -15.9 -23.8 -8 -31.8 -8 V 376.6 h 1.6 l 190,-0.1 h 108.6 166.2 l -0.9,2 z"
         inkscape:connector-curvature="0"
         style="fill:#800000" />
      <path
         name="Qina"
         id="EGY1551"
         d="m 656.2,595.6 -0.6,2.1 v 4.8 l -0.3,1.3 -0.4,0.8 -0.8,0.6 -0.7,0.4 -1.4,1.2 -7.7,-6 -1.7,-1.8 -0.8,-1.2 -0.8,-1.4 -1.2,-3.2 -2.2,-13 -2.8,-11 -0.1,-1.4 0.1,-1.9 0.2,-0.9 0.4,-0.9 1.2,-1.8 2.4,-2.5 11.2,-8.9 1.6,-1.8 0.6,-0.9 0.5,-0.9 0.4,-1 0.5,-2 0.6,-4.3 0.3,-1 0.5,-1.1 3.4,-5.9 0.8,-1.8 0.3,-1 0.2,-1.2 v -1.9 l -0.3,-1.8 -0.3,-1 -0.6,-0.9 -0.7,-0.9 -0.8,-0.8 -0.8,-0.6 -0.9,-0.4 -1.2,-0.2 -1.4,-0.1 -3.7,0.5 -2.3,0.6 -18.8,8.8 -7.2,2.1 -4,0.7 -2.3,-0.1 -1.5,-0.3 -1.2,-0.4 -2,-1 -1.4,-0.8 -0.9,-0.6 -12.9,-12.3 3.2,-3 0.9,-0.6 0.9,-0.4 4.6,-0.6 1.3,-0.4 1,-0.7 1.9,-2.3 0.4,-0.4 0.9,-0.4 1,0.2 1,1 2.4,4 1.6,1.9 1.8,1.4 1.9,1.1 h 1.2 l 0.8,-0.1 2.2,-2.4 2.5,-0.5 16.5,-8 4.2,-0.8 2.4,-0.2 5.2,0.4 6.4,1.8 1.6,0.9 2,1.4 2.8,2.6 3.2,4.4 1.2,2.1 0.8,2 1.2,4.3 0.9,6.7 0.1,3.2 -0.1,2.1 -0.5,2.5 -0.7,2.4 -4.2,8.7 -1.5,2.1 -1.8,2.1 -7.9,7.1 -5.4,6 -1.3,1.8 -0.8,1.8 -1,3 -0.1,1.3 0.1,4.8 1.4,6.8 0.9,2.6 1.1,1.9 0.7,0.9 z m -3.8,-38.9 0.8,-1.3 0.1,-0.7 -1.6,-0.8 -2,3.9 1,0.2 1.1,0.1 z"
         inkscape:connector-curvature="0" />
      <path
         name="Suhaj"
         id="EGY1552"
         d="m 567.4,453.3 13.8,9.6 3.6,3.5 1.2,3 1.9,3.3 2.2,2.9 0.8,1.7 0.5,1.4 0.4,4.1 0.2,1 1.2,2.5 2,3 1.3,1.7 1.1,1.2 1.5,1 2.2,1.2 2.3,0.9 5.4,1.2 1,0.4 1.3,0.8 0.8,1.1 0.8,1.1 2.2,4.1 8.6,10.9 -2.2,2.4 -0.8,0.1 h -1.2 l -1.9,-1.1 -1.8,-1.4 -1.6,-1.9 -2.4,-4 -1,-1 -1,-0.2 -0.9,0.4 -0.4,0.4 -1.9,2.3 -1,0.7 -1.3,0.4 -4.6,0.6 -0.9,0.4 -0.9,0.6 -3.2,3 -34.2,-43 -7.8,-6.6 -11.3,-14.1 7.6,-4.2 0.9,-0.7 0.8,-0.8 0.5,-0.7 0.6,-1 0.8,-1.1 0.6,-0.6 0.5,-0.3 h 0.9 l 1.1,0.4 1.4,1.4 0.6,0.8 0.6,1 1.3,2.9 0.7,1.1 0.8,1 0.9,0.8 1.2,0.5 1,0.3 z"
         inkscape:connector-curvature="0" />
      <path
         name="Al Bahr al Ahmar"
         id="EGY1556"
         d="m 762.3,462.6 v 2.1 l -1.1,-1.1 -2.8,-6.4 h 1.2 0.5 l 1.6,3.5 z m 0.3,-71.5 1.8,0.7 0.5,1.6 0.3,1.6 1,1.1 v 0.6 l -1.6,-0.3 -2,-2.2 -1.7,-0.6 -0.8,-0.5 -0.8,-0.9 -0.8,-0.6 -1.9,0.9 -0.7,-0.7 -0.6,-1 -0.3,-1 0.4,-0.6 0.6,-0.4 0.6,-0.2 h 0.7 l 1.8,0.2 1.4,0.9 1.1,1 z m -174.7,-135.4 3.5,1.6 11.2,-1.7 6.6,0.4 1.2,-0.3 1.8,-0.5 24.9,-11 2.3,-1.4 3.4,-1.1 1.5,-0.2 7.9,-0.1 0.2,1 0.1,2 -0.4,0.8 -0.9,0.7 -0.4,1.1 -0.9,0.4 -0.3,0.8 0.7,1 -0.5,2.8 -0.1,3.3 0.5,1 2.6,2.6 0.8,1.2 0.3,0.9 v 1.9 l 0.3,1 1.9,2 0.3,0.2 3.4,4.8 2.9,0.6 1.8,1.9 1.2,2.9 3.6,13.8 0.3,1.9 0.9,0.3 3.9,2.3 1.9,1.9 1,1.2 0.8,1.7 0.8,0.3 0.9,0.2 0.8,0.4 0.2,0.6 0.6,1.9 2.3,4.5 0.8,0.7 -0.1,0.5 -0.5,0.1 3.6,3 1.5,2 -0.1,2 0.7,0.5 0.5,1 0.4,1.2 0.2,0.8 0.3,0.3 1.8,2.6 3.9,4.2 1,2 0.8,0.5 0.9,0.4 0.7,0.5 0.4,1.2 -0.1,1 0.3,0.7 1.4,0.3 1.4,0.7 2.7,3.3 1.8,1.1 -0.2,0.5 0.2,0.8 v 0.5 l -0.2,0.8 0.6,0.6 1,0.2 0.8,-0.2 0.7,1.3 1.8,0.8 3.7,1 5.8,5.4 1.9,3.9 1,0.9 0.5,1 1.8,4.2 0.2,1.1 v 0.6 l 0.4,0.7 0.3,1.8 0.4,0.7 v 0.6 H 727 l -0.9,-2.1 -1.9,-1.1 -2.2,-0.9 -1.7,-1 h -0.6 l -0.5,1.4 -0.2,0.7 0.2,0.7 0.5,1 1.6,1.6 0.8,1.2 0.4,1.4 0.5,0.7 1.2,-0.3 1.2,-0.6 0.5,0.2 -0.1,1.2 -0.3,1.4 -0.6,1.2 -0.7,1 0.8,0.9 1.8,1.4 0.5,0.1 0.2,0.4 0.8,1.7 0.4,0.5 v 0.6 l -0.9,-0.7 -1.9,-2.5 h -0.6 v 0.7 l 0.3,0.5 0.3,0.8 h -0.6 l -0.5,-1.8 -1.4,0.2 -1.6,1.3 -0.9,1.5 1.9,1 1.4,1.9 2.3,4.1 -0.3,0.6 -0.3,0.7 -0.1,0.9 0.1,1 1.4,1 3.5,1.6 1.3,1.2 0.2,0.8 0.1,2 0.3,0.9 0.5,0.8 1.4,1.5 0.6,0.9 0.5,1.9 0.6,4.1 0.5,1.2 2.8,2.6 3.1,2.2 3.5,1.7 1.6,1.1 1,1.6 0.2,0.9 -0.2,3.5 -0.1,0.3 -0.8,0.7 -0.2,0.3 0.1,0.5 0.4,0.8 0.1,0.6 0.1,2 0.3,1.6 0.9,1.2 1.5,1.1 1.4,1.3 1.5,2.1 0.6,1.5 -1.2,-0.2 v 1.5 l 0.5,1.3 1.7,2.2 0.7,1.4 1,2.8 0.8,1.2 1,0.8 1.2,0.7 1,0.7 0.4,1 0.6,2.9 v 1.4 l -0.6,1 -1.3,0.1 -0.9,-0.8 -0.8,-0.4 -0.9,1.8 -0.2,1.2 v 1.6 l 0.2,1.6 0.3,1.2 v 2.4 l -1.6,5.6 0.8,2.6 1.1,1 2.7,0.8 1.2,0.8 0.9,1.2 0.8,2.9 2.7,3.5 1.1,2.5 2.8,8.1 1.2,2.4 1.7,2.5 1.1,2.3 2,3 6.9,15.9 3.2,4.8 3,7.8 6.5,9 0.6,1.1 0.8,2.6 5.5,8.2 2.9,3.3 0.7,0.9 7.1,14.1 1.1,4.3 2,3.9 0.9,4.6 1.5,2.5 3.5,4.5 0.5,1.1 0.8,2.7 0.5,1.2 2.4,3.8 1,3.8 3.8,6.6 7,12.2 0.3,2.9 0.9,2.5 2.9,3.5 0.3,1.7 0.1,3.3 0.2,1.7 0.5,1.4 0.6,1 1,0.8 1.3,0.8 2.1,2 1.4,2.6 1.9,7.1 0.4,1.1 1.5,2.4 1.5,2.8 1.2,1.1 v 1.4 l -1.3,2.8 v 2.5 l 3.4,1.3 4,7.6 11.1,8.5 1.7,2.1 3,8.7 2.2,2.4 3.1,4.5 1.4,-0.2 -0.6,-1.3 -0.8,-1.2 0.9,-0.2 1.6,1.8 2.3,0.9 3,3.1 1.1,2.5 0.2,2.6 2.5,1.5 2.6,-0.4 2,0.5 2.1,0.7 1.7,0.9 1.3,1.3 1.7,4 1.5,2 -0.6,0.8 -1.2,-1.7 -1.7,-1.8 -1.2,-0.1 -2.9,1.4 -1.3,0.6 -3.1,-1.3 -1.6,-0.3 -1.1,0.1 -1.2,-0.2 -1.5,-0.6 -0.6,-0.7 -0.9,-1.2 -0.9,-0.2 v -0.5 l -1.3,-0.6 -1.7,-0.4 -0.8,0.5 -1.1,2.1 -0.6,2.7 0.6,4.2 -1.3,6.5 0.7,2.3 1.5,0.3 0.7,1.1 -0.1,1.3 -0.3,0.7 0.2,1.4 0.2,3.1 -0.4,3.7 -0.2,7.7 -0.1,1.4 -0.8,2.5 -0.2,1.4 0.3,1.3 0.8,1.3 1.7,2.5 1.4,2.6 0.5,1.4 0.3,1.5 v 4.2 l 0.6,4.3 0.8,3.3 0.5,2.9 3.8,6.5 1.2,2.5 1.6,3.3 1.1,8.1 0.6,1.5 1.6,3 3.4,4.3 2.2,1.2 -1,-1.4 -2.3,-4.1 1.6,0.1 1,0.8 0.8,1.3 0.5,1.5 0.9,4.4 0.2,0.7 1.4,0.9 0.6,1 0.6,1.1 1.1,1.3 1.4,1.9 3.2,2.4 2.9,1.2 1.5,0.5 0.3,0.4 1,0.7 1.1,0.6 1.2,0.4 4.6,0.3 6.6,1.3 6.3,2.1 2.3,1.4 4,3.8 1.3,2.2 0.4,4.1 1.4,2.7 2.5,2.1 2.5,2 2.5,1.1 -0.3,-1.4 h 0.5 l 1.7,2 -0.4,2.5 1.4,3.6 5.5,2.5 2.7,1.6 1.8,1.2 5,4.2 7.3,7.1 1.6,0.8 1.2,-0.1 0.3,-0.5 0.2,-0.6 0.3,-0.3 0.6,0.2 1.4,0.9 0.7,0.6 0.4,0.6 1.2,2.6 0.7,1.1 1.2,1.1 3.2,2 1.9,0.7 0.3,3.2 -0.1,1.1 -0.5,0.9 -0.7,1 h -19.1 -38 -38 -19.1 -57 -38 -76.1 -19 -133.9 -2.2 l 0.1,-0.4 2.3,-4.4 1.9,-2.2 1.8,-1.5 1.8,-1 16.9,-8 1,-0.8 1.4,-1.8 1.1,-1.9 0.6,-0.9 1,-0.9 1.1,-0.4 1,-0.2 h 2.8 l 1,-0.2 1,-0.4 0.9,-0.5 3.3,-2.4 1.1,-1.3 1.4,-1.8 1.4,-2.3 5.3,-15 0.9,-1.9 0.6,-0.9 0.8,-0.6 0.9,-0.3 0.9,0.1 0.9,0.4 0.9,0.6 3.7,3 3.4,3.9 0.8,0.6 0.8,0.6 2.1,1 2,0.6 1.1,0.2 4.6,0.1 3.9,-0.6 3.7,-1.2 1.6,-0.9 1.4,-0.9 3,-2.7 2.6,-2.9 10.6,-9.6 2.1,-2.8 1.1,-1.8 0.5,-1.2 0.3,-1.6 0.1,-2.6 -0.5,-3.8 v -1.2 l 0.7,-1.2 1.6,-1.6 0.5,-0.8 0.9,-2.7 0.4,-0.9 0.7,-0.6 0.8,-0.1 0.8,0.2 1,0.6 0.9,0.9 3.6,3.8 1.9,1.5 0.9,0.4 0.9,0.3 0.9,0.1 h 0.8 l 6.7,-1.1 2,0.2 1.9,0.6 2,1.2 6.5,6.8 5.3,4 0.9,0.4 0.9,0.3 h 0.8 l 0.7,-0.4 0.3,-1 -0.2,-2.3 -3.4,-11.6 -0.5,-0.9 -0.7,-0.9 -1.6,-1.5 -0.7,-0.8 -1.1,-2 -0.7,-0.9 -0.8,-0.7 -1,-0.5 -4.8,-1.8 -5.6,-3.5 -0.9,-0.7 -0.5,-1 -0.2,-1.1 0.5,-1.2 1.6,-1.8 0.6,-0.9 0.4,-0.9 1.2,-3 0.5,-1.1 0.8,-0.9 2.5,-2 0.6,-0.8 0.4,-0.9 2.9,-7.5 0.7,-2.3 0.1,-0.9 -0.1,-1.3 -0.3,-1.4 -0.9,-2 -2.3,-3.6 -0.5,-1.4 -1.8,-8.3 -0.1,-2.3 0.2,-1.5 1.7,-2.7 0.4,-0.9 0.1,-1.5 -0.5,-4.7 v -1.7 l 0.1,-1.4 -0.1,-1.2 -0.3,-1.3 -1,-1.9 -0.9,-1.1 -0.9,-0.7 -1.7,-1.2 -1.6,-1.4 -1.3,-1.7 -0.7,-1.6 -2.2,-6.1 -1.9,-3.6 -0.8,-2.1 -2.3,-15.3 0.8,-6.1 1.7,-7.1 0.7,-1.6 6.7,-8.8 1.3,-2 1,-1.9 0.3,-0.8 0.6,-2.3 0.1,-1.7 -0.1,-0.7 -8.8,-18.5 -0.5,-1.3 -0.5,-3.2 -0.2,-12.1 -0.8,-5.3 -0.6,-2.6 -1.1,-2.7 -2.8,-4.8 -3,-4 -16.6,-12.7 -2.6,-2.5 -0.7,-0.9 -1.1,-1.9 -0.9,-2.6 -1.4,-6.8 -0.1,-4.8 0.1,-1.3 1,-3 0.8,-1.8 1.3,-1.8 5.4,-6 7.9,-7.1 1.8,-2.1 1.5,-2.1 4.2,-8.7 0.7,-2.4 0.5,-2.5 0.1,-2.1 -0.1,-3.2 -0.9,-6.7 -1.2,-4.3 -0.8,-2 -1.2,-2.1 -3.2,-4.4 -2.8,-2.6 -2,-1.4 -1.6,-0.9 -6.4,-1.8 -5.2,-0.4 -2.4,0.2 -4.2,0.8 -16.5,8 -2.5,0.5 -8.6,-10.9 -2.2,-4.1 -0.8,-1.1 -0.8,-1.1 -1.3,-0.8 -1,-0.4 -5.4,-1.2 -2.3,-0.9 -2.2,-1.2 -1.5,-1 -1.1,-1.2 -1.3,-1.7 -2,-3 -1.2,-2.5 -0.2,-1 -0.4,-4.1 -0.5,-1.4 -0.8,-1.7 -2.2,-2.9 -1.9,-3.3 -1.2,-3 -3.6,-3.5 -13.8,-9.6 -8.7,-18.4 -1.9,-3.2 -1.1,-1.4 -5.2,-5.3 -3.3,-2.8 -1.9,-1.2 -0.6,-0.5 -0.6,-0.8 -0.6,-1.4 -1.3,-3.7 -0.8,-1.4 -1,-1.3 -1.8,-1.6 -1.2,-0.9 -1.2,-0.6 -5.2,-1.6 -8.3,-3.5 -7.1,-4.2 -0.8,-0.7 -0.8,-1 -0.5,-1 -0.6,-1.2 -0.7,-2.6 -0.3,-1.3 -0.1,-2.7 0.3,-8.1 1.4,-8.8 0.1,-1.5 -0.1,-2.2 -0.3,-2.8 -0.4,-1.8 -1.9,-4.9 -0.5,-2.1 -0.7,-8.8 -0.4,-2.5 -1.3,-3.7 -4.4,-8.7 -0.4,-1.1 -0.1,-1 -0.4,-4 -0.8,-4.2 -0.1,-1 0.2,-1.7 0.5,-2.1 2.3,-6.2 4,-6.8 0.5,-1.1 0.4,-1.9 2.6,-22.7 0.1,-1.9 0.6,-2.8 1.5,-4.3 1.8,-3.2 5.5,-7.4 4.7,-7.6 2.3,-3.1 3.6,-3.9 1.2,-1.8 1,-2 1.4,-3.9 1,-1.9 0.6,-1.8 0.1,-1.3 -0.3,-3.7 0.3,-4 6,7.4 1.7,1.5 0.6,0.7 0.5,0.8 1.2,2.7 0.3,0.6 1,1.3 3.2,3.4 1.6,1.2 2.5,1.5 1.5,0.8 z"
         inkscape:connector-curvature="0"
         style="fill:#000080" />
      <path
         name="Janub Sina'"
         id="EGY1557"
         d="m 821.9,353.3 -2.3,1 -1.9,-0.7 -1.6,-1.4 1.7,-2.6 4.1,0.1 z m -15.4,-7.2 -2.1,0.5 -0.9,0.4 -0.3,1 0.7,0.8 1.4,0.1 2.3,-0.4 1.1,-0.3 0.3,0.2 0.4,0.6 0.5,0.9 2.9,2.6 v 0.6 l -3.2,0.3 -2.8,-0.2 -2.4,-1 -1.8,-2.3 0.1,-1.2 -0.2,-1.8 -0.4,-0.8 0.4,-0.5 0.1,0.5 0.3,-0.7 0.4,-0.5 0.5,-0.4 0.5,-0.3 1.5,0.8 0.4,0.5 z m -154.6,-167.5 16.6,-11.7 22.5,-1.1 52.1,9.3 20.9,11.3 16.6,6.3 9.5,5.1 10.2,3.7 34.1,5.3 -0.8,0.5 -0.7,0.5 -0.6,0.7 -0.6,0.8 -0.4,1.1 -0.3,1 -0.4,0.8 -1.1,0.4 0.7,0.2 -0.1,0.5 -0.7,0.3 -0.5,0.5 -0.2,0.5 0.3,0.6 -0.8,0.1 -0.3,0.3 v 0.3 l 0.5,0.5 -0.9,0.9 -1.9,3 -0.4,0.4 -0.9,0.5 -0.4,0.3 -0.6,1.1 -0.4,0.5 -0.7,0.5 v 0.5 l 0.8,1.3 -0.3,1.4 -0.7,1.3 -0.4,1.2 v 4.8 l -0.4,1.1 -1,0.9 -0.9,0.7 -0.4,0.5 -0.1,1.3 -0.3,1.5 -0.6,1.5 -0.7,1.2 0.2,1 -0.2,5.7 0.1,0.9 0.9,1.2 0.1,1.1 -0.2,1.1 -0.6,0.5 -0.8,0.3 -1.8,1.2 -0.3,0.5 -0.2,1.2 v 0.6 l 0.4,1.9 0.1,5.5 -2.1,1.6 v 0.6 l 0.2,0.8 0.2,1.3 v 1.4 l -0.4,1.1 0.5,0.7 0.5,1.1 -0.7,0.5 -0.1,0.5 0.3,1.3 -0.2,1 -0.4,0.6 -0.4,0.5 -0.1,0.4 -0.5,1.7 -1.9,2.7 -1.1,4.3 -3.3,5 -1.1,2.6 -0.1,0.7 -0.4,-0.1 1,2.9 -0.9,1.8 -1.9,1.4 -1.6,1.6 0.3,0.2 0.2,0.5 -1.1,0.5 -0.6,1.3 -0.8,4.1 -0.3,1 -1,1.6 H 797 l -0.3,1.1 -1.1,2.3 -0.3,1.1 0.1,1.6 0.2,1.2 0.4,1 0.4,1 v 0.6 l -0.6,1.6 0.7,1.3 1,1.3 0.8,1.5 0.7,0.8 0.3,0.5 v 0.6 l -0.6,1 -0.1,1.2 -0.7,3.2 -1,2.6 1.4,2.6 -1.3,6.5 0.6,0.7 -2.1,0.4 -0.7,0.3 -0.3,0.5 -0.2,0.8 -0.4,0.8 -1,0.7 -0.5,1.3 -0.7,0.3 -0.6,0.1 -1.2,0.4 -0.8,0.1 0.2,0.5 0.4,0.2 -0.6,1.4 -0.8,2.8 -0.8,0.9 h -0.6 l -0.2,-0.5 -0.7,-0.3 -0.5,-0.4 -0.6,0.6 -0.6,2 -0.7,1.1 0.7,1.1 -1.1,1 -1.6,0.7 -1.1,0.3 h -1 l 0.4,1.4 0.2,0.6 h 3 v 0.6 h -0.6 v 0.6 l 0.4,0.4 0.3,0.4 0.4,1.1 -0.8,-0.4 -0.1,0.3 0.4,0.1 v 0.7 h -0.6 l -0.4,-0.8 -1.5,-2 -1.5,-1.6 -0.7,-0.6 -0.8,-0.4 -1.3,-0.4 -7.8,-0.9 -2,-1.3 -5.5,-6.6 -0.4,-0.3 h -0.7 l -4.7,-4.3 -1,-0.5 -1.1,-0.1 -0.9,0.7 -1.1,-2.4 -0.6,0.5 -0.7,-0.9 -2.9,-2.4 -0.9,-0.5 -0.3,-0.4 -0.3,-0.8 -0.2,-0.3 -0.6,-0.5 -0.6,-0.3 -1.3,-0.3 0.1,-2.3 -4,-2.4 v -1.6 l -1.2,-1 -1.4,-2 -0.9,-2 0.2,-1.3 -0.8,-0.5 -0.2,-0.3 -0.2,-0.5 h -0.5 v 0.7 h -0.6 l -0.3,-0.5 -0.7,-0.8 -0.1,-0.3 -1.3,-4.6 -0.4,-0.6 -0.6,0.4 -0.6,-1.3 -1.9,-2.9 -0.8,-1.5 -10.7,-6.4 -0.5,-1 -0.4,-0.1 -1.9,-3.4 -1.6,-1.5 -0.9,-1.1 v -0.5 l -5.2,-3.9 -0.9,-0.9 -0.4,-0.7 -0.2,-0.7 -0.7,-1.2 -0.9,-1.1 -0.9,-0.5 0.5,-0.6 v 0.6 h 0.6 l -0.6,-3 -1.4,-0.2 -0.7,1.2 1.6,1.4 -1.4,-0.5 -0.9,-1.2 -0.4,-1.7 -0.4,-3.8 -0.5,-1.5 -1.5,-2.9 0.9,-1.8 1,-4.3 0.9,-2.1 -1,-1.3 -0.5,-0.7 -0.4,-1.9 -0.6,-0.4 -0.8,-0.3 -0.6,-0.5 -0.5,-1.8 -0.3,-4.1 -0.3,-1.2 V 262 l 0.7,-0.8 0.1,-0.9 -0.3,-2.1 -0.2,-0.5 -0.3,-1.3 -0.1,-1.4 0.4,-0.7 0.6,-0.6 -0.6,-1.3 -1,-1 -0.5,0.1 -0.1,-1 -0.5,-0.7 -0.7,-0.3 -0.8,0.3 -0.9,-1.1 -2.2,-1.2 -0.9,-0.9 -1,-2.3 -0.1,-0.6 -0.3,-0.5 -1.2,-0.9 -0.2,-0.5 -0.3,-0.1 -1.4,-2.1 -1.1,-0.7 -0.4,-1 -0.1,-0.3 -3.7,-3.8 -1.3,-0.4 -1.8,-1 -1.8,-1.3 -1,-1.1 -0.5,-1.5 -0.4,-2 -0.5,-1.6 -1.1,-0.8 -0.8,-0.3 -0.5,-0.7 -1.7,-4 -0.1,-0.1 0.3,-3.5 -0.3,-1.6 -2.2,-1 -4,-2.9 h 0.6 l -0.3,-0.7 -0.3,-0.3 -1.1,-0.3 0.4,-0.4 0.2,-0.3 -0.1,-0.6 h -0.5 l -0.4,0.8 -0.1,0.7 0.1,0.6 0.4,0.5 H 657 l 0.6,-3.5 0.2,-4.4 -1,-3.8 -2.6,-1.8 v -0.6 l 0.5,-1.2 v -1.3 l -0.3,-1.4 -0.2,-1.3 0.2,-1.4 0.7,-1.9 0.2,-0.9 -0.1,-1.6 -0.2,-1 -0.3,-0.8 -0.5,-0.8 -2,-2.5 -0.2,-1.1 z"
         inkscape:connector-curvature="0"
         style="fill:#d42aff" />
      <path
         name="Shamal Sina'"
         id="EGY1558"
         d="m 679.3,55.9 0.1,0.9 -0.8,-0.7 -0.3,-0.5 0.1,-0.5 0.5,0.2 z m 36.4,-8.5 3.5,2.9 -1.7,-1.2 -12.8,-5.6 -2.3,-0.4 2.5,0.1 4.2,2 1.9,0.5 2.5,0.5 z m -26.8,-6.5 12.9,1.6 -0.6,0.4 h -1 l -2.5,-0.5 -4.9,-0.7 -2.8,0.8 -1.3,-0.3 -2.1,0.8 -9.9,5.3 -1.7,1.4 0.9,-1.4 1.9,-1 1.6,-0.8 1,-0.6 1.1,-0.8 4.3,-2 0.9,-0.9 z m 145.5,165.9 -34.1,-5.3 -10.2,-3.7 -9.5,-5.1 -16.6,-6.3 -20.9,-11.3 -52.1,-9.3 -22.5,1.1 -0.7,-0.9 -0.7,-1.3 -0.7,-1.9 -1,-19.3 -1.5,-8.8 -4.4,-11.2 -7.5,-12.1 -0.1,-0.4 -0.3,-1.2 -0.3,-2 -0.2,-8.4 -3.3,-33 -0.2,-8.3 V 58 h 0.2 l 3.5,0.1 3.5,-0.4 6.1,-1.6 7.2,-3.6 1.4,-1.1 3.4,-1.7 0.9,-0.7 h 0.6 v 0.7 l -2.6,1 -4.6,3.5 -2.6,0.7 -4.5,2.1 -7,1.9 h 3.9 v 0.6 l -1.1,0.7 2.5,-0.1 0.9,-0.3 0.5,-0.9 h 0.5 l 0.1,0.5 1.1,0.1 5,-3.3 4.2,-1.3 0.9,-0.7 h 0.5 l 0.3,0.5 1.2,0.3 -0.3,0.5 -0.6,0.1 v 0.6 l 0.9,-0.3 1.9,-1 v -0.7 h -2.2 v -0.6 l 1.1,-0.4 1.3,0.3 1.3,1 0.8,1.1 0.2,0.5 0.3,1.5 h -1.1 l 2.7,0.9 h 1.2 l 1.1,-0.9 v -0.8 l -0.7,-0.4 -0.4,-0.2 v -0.6 l 3.1,-0.8 0.8,-0.6 -0.4,-0.7 0.2,-0.7 0.4,-0.8 0.4,-1 H 685 l -0.5,0.6 -1.7,1.3 -0.5,0.7 v 0.3 l 0.5,0.3 -1.1,0.3 h -1.9 l -1.9,-0.3 -1.3,-0.6 2.5,-0.2 1.4,-1.5 1,-1.9 1.3,-1.6 1,-0.5 2,-0.4 0.9,-0.4 1.6,-1.5 1,-0.5 h 1.4 v 0.6 h -2.3 v 0.6 l 1,0.8 2.9,3.9 0.9,1.6 -0.3,0.5 -1.1,0.3 -1.1,0.8 -0.2,-0.6 H 690 v 0.6 l 1.4,1 0.7,1.2 v 1.5 l -0.9,1.6 2.9,-1.2 1.6,-0.3 1,0.1 0.6,-0.1 1.1,0.1 v -0.5 l -1.1,-0.8 h -0.6 v 0.8 h -0.5 v -0.8 l 4.4,-1.7 1.2,-0.9 h 0.6 l -0.6,0.7 0.6,0.7 0.6,-0.5 0.6,-0.1 0.6,0.4 0.4,0.8 h 0.6 v -0.8 -0.9 l -0.1,-0.2 1.2,-0.1 -0.8,-0.4 -0.8,0.1 -0.8,-0.1 -0.9,-0.2 8.9,-0.7 -0.7,-1.7 1,-0.4 1.3,-0.1 V 49 l 0.9,0.5 0.3,0.2 h 0.6 l 1.1,-0.3 3.2,1.7 1.5,0.5 6,0.6 1.6,0.7 v -0.6 l 1.9,0.5 2.7,-0.1 16.8,-4.5 15.8,-6.2 12.5,-8.2 2,3.7 0.5,1.6 2.3,7.2 5.8,18.1 3.1,8.3 4.2,11 5,13.4 1.8,7.5 0.2,3.9 0.5,1.7 1.3,1.7 0.8,1.2 v 1.3 l -0.8,2.8 -0.2,1.7 0.2,1.1 0.6,0.9 4.4,3.9 0.9,1.4 2.8,7.8 4.8,13.9 3.5,10.2 v 1.2 l 0.5,5.1 3.6,9.9 3.2,8.8 2.1,9.7 -0.1,6.5 0.5,2.3 1.9,3.8 0.7,1.4 z"
         inkscape:connector-curvature="0"
         style="fill:#550000" />
      <path
         name="Luxor"
         id="EGY5494"
         d="m 652.4,556.7 -0.6,1.4 -1.1,-0.1 -1,-0.2 2,-3.9 1.6,0.8 -0.1,0.7 z"
         inkscape:connector-curvature="0" />
      <circle
         id="0"
         cy="54.5"
         cx="482"
         r="0" />
      <circle
         id="1"
         cy="54.599998"
         cx="482.5"
         r="0" />
      <circle
         id="2"
         cy="96.300003"
         cx="550.79999"
         r="0" />
    </g>
  </g>
</svg>
